<svg xmlns="http://www.w3.org/2000/svg" xmlns:xlink="http://www.w3.org/1999/xlink" viewBox="0 0 254.86 158.04"><defs><style>.cls-1{isolation:isolate;}.cls-2{fill:url(#Degradado_sin_nombre_6);}.cls-3{fill:url(#Degradado_sin_nombre_6-2);}.cls-11,.cls-4,.cls-8{mix-blend-mode:color-dodge;}.cls-4{fill:url(#Degradado_sin_nombre_4);}.cls-5{mix-blend-mode:multiply;fill:url(#Degradado_sin_nombre_27);}.cls-6{fill:url(#Degradado_sin_nombre_5);}.cls-7{fill:url(#Degradado_sin_nombre_5-2);}.cls-8{fill:url(#Degradado_sin_nombre_4-2);}.cls-9{fill:url(#Degradado_sin_nombre_3);}.cls-10{fill:url(#Degradado_sin_nombre_3-2);}.cls-11{fill:url(#Degradado_sin_nombre_4-3);}.cls-12{mix-blend-mode:overlay;fill:url(#Degradado_sin_nombre_25);}</style><linearGradient id="Degradado_sin_nombre_6" x1="32.88" y1="-3.92" x2="109.44" y2="-77.15" gradientTransform="translate(253.97 47.42) rotate(180)" gradientUnits="userSpaceOnUse"><stop offset="0" stop-color="#00efb3"/><stop offset="1" stop-color="#0083b3"/></linearGradient><linearGradient id="Degradado_sin_nombre_6-2" x1="43.93" y1="-79.22" x2="25.14" y2="4.03" xlink:href="#Degradado_sin_nombre_6"/><linearGradient id="Degradado_sin_nombre_4" x1="-28.94" y1="-30.39" x2="94.67" y2="-74.66" gradientTransform="translate(253.97 47.42) rotate(180)" gradientUnits="userSpaceOnUse"><stop offset="0" stop-color="#b4b4b4"/><stop offset="1"/></linearGradient><linearGradient id="Degradado_sin_nombre_27" x1="84.15" y1="-103.42" x2="140.03" y2="-63.5" gradientTransform="translate(253.97 47.42) rotate(180)" gradientUnits="userSpaceOnUse"><stop offset="0.01" stop-color="#fff" stop-opacity="0"/><stop offset="1"/></linearGradient><linearGradient id="Degradado_sin_nombre_5" x1="115.62" y1="-108.28" x2="196.62" y2="-24.59" gradientTransform="translate(253.97 47.42) rotate(180)" gradientUnits="userSpaceOnUse"><stop offset="0" stop-color="#ea23fb"/><stop offset="1" stop-color="#6d00a9"/></linearGradient><linearGradient id="Degradado_sin_nombre_5-2" x1="205.24" y1="-71.11" x2="109.02" y2="-96.62" xlink:href="#Degradado_sin_nombre_5"/><linearGradient id="Degradado_sin_nombre_4-2" x1="163.21" y1="-95.1" x2="232.13" y2="13.66" xlink:href="#Degradado_sin_nombre_4"/><linearGradient id="Degradado_sin_nombre_3" x1="126.54" y1="-30.76" x2="126.54" y2="56.89" gradientTransform="translate(253.97 47.42) rotate(180)" gradientUnits="userSpaceOnUse"><stop offset="0" stop-color="#ffb131"/><stop offset="1" stop-color="#ff4563"/></linearGradient><linearGradient id="Degradado_sin_nombre_3-2" x1="148.01" y1="-26.06" x2="79.29" y2="15.94" xlink:href="#Degradado_sin_nombre_3"/><linearGradient id="Degradado_sin_nombre_4-3" x1="107.5" y1="-71.42" x2="163.81" y2="36.9" xlink:href="#Degradado_sin_nombre_4"/><linearGradient id="Degradado_sin_nombre_25" x1="147.17" y1="41" x2="170.55" y2="11.41" gradientTransform="translate(253.97 47.42) rotate(180)" gradientUnits="userSpaceOnUse"><stop offset="0" stop-color="#fff" stop-opacity="0"/><stop offset="1"/></linearGradient></defs><g class="cls-1"><g id="Capa_2" data-name="Capa 2"><g id="Capa_1-2" data-name="Capa 1"><path class="cls-2" d="M90.89,142.9l33.19-33.18L181.77,52a51.68,51.68,0,0,1,73.09,0L222.62,84.26l-3.36,3.36-32.79,32.79-15.14,15.14L164,142.9A51.67,51.67,0,0,1,90.89,142.9Z"/><path class="cls-3" d="M199,71.84c1.85-10.63,3.41-21.49,2.68-32.22A51.71,51.71,0,0,1,254.86,52L222.62,84.26l-36.15,36.15C192.47,104.79,196.14,88.34,199,71.84Z"/><path class="cls-4" d="M90.89,142.9l33.19-33.18,4.38-4.38a170.79,170.79,0,0,0,23.69-1,323.82,323.82,0,0,0,33-5.51c2.88-.61,5.75-1.25,8.62-2A116.84,116.84,0,0,0,214.41,90q2.46-1.12,4.85-2.41l-32.79,32.79-15.14,15.14L164,142.9A51.67,51.67,0,0,1,90.89,142.9Z"/><path class="cls-5" d="M90.89,142.9l33.19-33.18,23.84-23.84a84.09,84.09,0,0,0,4.23,18.46c.44,1.27.92,2.53,1.42,3.78a89.28,89.28,0,0,0,17.68,27.34l.08.09L164,142.9A51.67,51.67,0,0,1,90.89,142.9Z"/><path class="cls-6" d="M0,52A51.41,51.41,0,0,1,24.18,38.39q.8-.2,1.59-.36a51.35,51.35,0,0,1,12.29-1.12,52.48,52.48,0,0,1,6.73.64A51.51,51.51,0,0,1,73.09,52l4.68,4.68,60.85,60.84,5.94,5.94.67.67,9.76,9.76,4.76,4.76L164,142.9a51.93,51.93,0,0,1-8.63,7,51.21,51.21,0,0,1-22.4,7.88,54.12,54.12,0,0,1-6,.3A51.51,51.51,0,0,1,90.88,142.9l-30.6-30.6-8.44-8.43Z"/><path class="cls-7" d="M51.84,103.87A175,175,0,0,0,77,114.21a156.85,156.85,0,0,0,19.13,4.9c13.9,2.64,28.08,3.36,42.2,4.07l6.25.31.67.67,9.76,9.76,4.76,4.76L164,142.9a51.93,51.93,0,0,1-8.63,7,51.21,51.21,0,0,1-22.4,7.88,54.12,54.12,0,0,1-6,.3A51.51,51.51,0,0,1,90.88,142.9l-30.6-30.6Z"/><path class="cls-8" d="M0,52A51.41,51.41,0,0,1,24.18,38.39q.8-.2,1.59-.36a51.35,51.35,0,0,1,12.29-1.12,52.48,52.48,0,0,1,6.73.64A51.48,51.48,0,0,1,61.2,43.14c.22,24.52,5.23,49,15.78,71.07.4.86.81,1.71,1.24,2.56,4.83,9.66,10.7,18.76,16.55,27.85.76,1.18,1.68,2.48,2.68,3.85a51.27,51.27,0,0,1-6.57-5.57l-30.6-30.6-8.44-8.43Z"/><path class="cls-9" d="M71.05,26.83a5.93,5.93,0,0,1,1.73-4.19A77.75,77.75,0,0,1,89.57,9.89c1.51-.86,3.06-1.66,4.62-2.4a77.4,77.4,0,0,1,49.63-5.73c1.08.23,2.15.48,3.21.76a76.59,76.59,0,0,1,20,8.35,77.72,77.72,0,0,1,15.09,11.77,6,6,0,0,1,0,8.39L164.83,48.28,136.13,77l-2.86,2.86-5.84,5.84-.34-.34L107.22,65.46l-.13-.13L92.8,51l-20-20A6,6,0,0,1,71.05,26.83Z"/><path class="cls-10" d="M127.09,85.33,107.22,65.46a82.1,82.1,0,0,0,34.15-16.41c13.21-10.78,19-23.67,25.62-38.18a77.72,77.72,0,0,1,15.09,11.77,6,6,0,0,1,0,8.39l-48.81,48.8-5.84,5.84Z"/><path class="cls-11" d="M71.05,26.83a5.93,5.93,0,0,1,1.73-4.19A77.75,77.75,0,0,1,89.57,9.89a76.83,76.83,0,0,1,24.11-8.66,71.67,71.67,0,0,0,1,46,70.72,70.72,0,0,0,15.07,24.08,53.83,53.83,0,0,0,6.4,5.64l-2.86,2.86-5.84,5.84-.34-.34L107.22,65.46l-.13-.13L72.78,31A6,6,0,0,1,71.05,26.83Z"/><path class="cls-12" d="M71.05,26.83a5.93,5.93,0,0,1,1.73-4.19A77.75,77.75,0,0,1,89.57,9.89c1.51-.86,3.06-1.66,4.62-2.4a64.62,64.62,0,0,0-3.06,37.45A61.09,61.09,0,0,0,92.8,51l-20-20A6,6,0,0,1,71.05,26.83Z"/></g></g></g></svg>