<?xml version="1.0" encoding="utf-8"?>
<!-- Generator: Adobe Illustrator 25.0.0, SVG Export Plug-In . SVG Version: 6.00 Build 0)  -->
<svg version="1.1" id="Capa_1" xmlns="http://www.w3.org/2000/svg" xmlns:xlink="http://www.w3.org/1999/xlink" x="0px" y="0px"
	 viewBox="0 0 333 333" style="enable-background:new 0 0 333 333;" xml:space="preserve">
<style type="text/css">
	.st0{fill:none;}
	.st1{fill-rule:evenodd;clip-rule:evenodd;fill:#FF6A2D;}
</style>
<g id="Capa_2_1_">
	<g id="Capa_1-2">
		<rect class="st0" width="333" height="333"/>
		<path id="path14" class="st1" d="M89.5,87.1c-6.4,0.7-11.9,4.9-14.1,10.9L75,99.4v73.2c0,72.1,0,73.2,0.3,72.9s12-10,12.1-10.2
			s0.4-0.3,0.8-0.6s0.9-0.7,1.2-1c0.7-0.6,13.5-11.3,15.7-13.1l0.8-0.7c0.2-0.2,0.6-0.5,1-0.8s0.8-0.7,1-0.9s1.9-1.6,3.7-3.1
			l3.3-2.7l64.5-0.1c70.8-0.1,64.8,0,68.1-1.1c4.9-1.7,8.7-5.7,10.1-10.7c0.3-1.2,0.3-5.8,0.3-51.4L257.8,99l-0.5-1.4
			c-2-5.1-6.2-8.7-12.1-10.2C244,87.1,92.1,86.8,89.5,87.1 M137.9,112.6c14.3,2.6,24.4,12.2,25.5,24.1l0.1,1.5l-9.1-0.1h-9.1
			l-0.2-1.2c-2.2-10.7-19.9-12.9-26.3-3.3c-6.6,10-4.8,27,3.6,32.6c5.5,3.7,13.9,3.5,18.6-0.5c2.1-1.8,4.3-6.1,4.3-8.6
			c0-1.1-0.6-1,9.3-1h9v0.7c0,3-1.8,9.2-3.5,12.5c-9.4,17.6-37.9,20.5-52.9,5.4c-5.2-5.3-8.6-12-9.8-19.3
			C93.3,128.3,112.5,108.1,137.9,112.6 M187.2,122.1c0,8.7-0.1,10.7-0.8,13.3c-1.3,5.7-5.4,10.3-11,12.1c-1.2,0.4-2.5,0.7-3.7,0.9
			c-0.1-1.3-0.1-2.5-0.1-3.8v-3.8l1.1-0.3c3.6-1.3,6-4.6,6.1-8.4v-0.7h-7.1v-17.9h15.6L187.2,122.1 M218.3,131.3
			c1,0.1,2.1,0.2,2.4,0.3l1.5,0.3c8.5,1.4,14.6,7.6,14.6,14.8v0.6h-15.1l-0.1-0.7c-0.5-3.2-2.6-4.6-6.9-4.8c-5-0.2-7.6,0.9-7.7,3.5
			c-0.2,3,2.8,4.6,12.3,6.4s10.6,2.1,13.4,4c9.2,6.3,7.6,20.2-2.9,25.4c-10.8,5.4-28.4,4-35.4-2.8c-3.1-3.1-4.9-7.3-5-11.7
			c0-0.2,1.7-0.2,7.9-0.2h7.9l0.1,0.5l0.2,1.3c1.2,7.2,16.6,7.5,16.6,0.3c0-2.6-2-4.2-6.5-5.1c-0.2,0-1.4-0.3-2.7-0.6
			s-2.7-0.6-3.1-0.7c-13.7-2.4-18.9-6.3-19.4-14.5c-0.5-9.3,5.7-14.6,19.1-16.3C212.5,131.1,215.4,131.1,218.3,131.3"/>
	</g>
</g>
</svg>
