<svg xmlns="http://www.w3.org/2000/svg" viewBox="0 0 333 333"><defs><style>.cls-1{fill:none;}.cls-2{fill:#008bd6;}</style></defs><g id="Capa_2" data-name="Capa 2"><g id="Capa_1-2" data-name="Capa 1"><rect class="cls-1" width="333" height="333"/><path class="cls-2" d="M158.07,259.65a93.3,93.3,0,0,1-33.29-9.37,93.55,93.55,0,0,1-52.21-89.94,91.22,91.22,0,0,1,9.5-35.67A94.21,94.21,0,0,1,124.77,82a91.06,91.06,0,0,1,35.67-9.51,95.47,95.47,0,0,1,38.37,5.6,109.78,109.78,0,0,1,18.45,9.33,94,94,0,0,1,37,111.34,102.65,102.65,0,0,1-14.72,25.93,117.26,117.26,0,0,1-14.46,14.51,101,101,0,0,1-26.28,15A96.57,96.57,0,0,1,158,259.66Zm19.43-16.51c30.9-4.59,56.31-27.33,64-57.27a68.46,68.46,0,0,0,2.44-19.75,73.66,73.66,0,0,0-8.36-35.26,80.21,80.21,0,0,0-9.11-14l-2.11-2.49-4,.08c-7,.14-17.25,2-26,4.61a145.93,145.93,0,0,0-22.27,9.17c-8.52,4.19-10.47,5-11.94,4.76-.92-.13-1.15-.51-3.75-6.14-2.72-5.9-7.87-9.08-17.44-10.78-4.6-.81-20.32-.82-27.7,0l-5,.54L105.1,118c-3.94,4.53-10.16,15.87-12.48,22.72a88,88,0,0,0-3.47,14.41,95.1,95.1,0,0,0,0,22,78,78,0,0,0,49.18,61.67,85.25,85.25,0,0,0,20.79,4.85,99.53,99.53,0,0,0,18.36-.54Zm-59.93-31.38-2.58-.12V136.91l17,.15c18.38.16,19.26.24,24,2.24a23.72,23.72,0,0,1,8.19,5.59l2.06,2.16V136.91l17,.14c16.09.13,17.14.18,20,.92,11.22,2.93,17.56,10.57,18.08,21.76.37,7.88-1.49,13.05-6.45,18a25.07,25.07,0,0,1-12.22,6.81c-3.14.83-4.29.93-12.27,1.09l-8.8.18V212h-6.32c-3.47,0-6.91-.1-7.65-.22l-1.33-.22V175.2l-2.84,2.74a19.27,19.27,0,0,1-6.13,4.32c-5.78,2.75-9.83,3.44-20.28,3.44H130.3V212l-5.07-.08c-2.79,0-6.24-.12-7.65-.19Zm30.91-40.53a12.69,12.69,0,0,0,5.38-4.91c1.67-3.25,1.08-9.44-1.13-11.85-2.95-3.23-5.9-4-15.59-4h-6.85v21.76l8.27-.12c7.56-.11,8.42-.18,9.92-.88Zm51.53-.18c4.08-2,6-5,6.05-9.46a12.54,12.54,0,0,0-1.73-6.75,12.18,12.18,0,0,0-2.45-2.08c-2.72-1.84-5.32-2.28-13.52-2.29h-6.85v21.76l8.28-.12c8.09-.11,8.31-.13,10.22-1Zm-20.94-57.42c2.5-.47,6.69-1.35,9.3-2,8-1.86,16.44-3.5,22.11-4.29,3-.41,5.49-.82,5.58-.91s0-.28-.2-.42-1.32-1-2.48-1.88A78.28,78.28,0,0,0,186.1,90.88a67.54,67.54,0,0,0-19.84-2.46,73.59,73.59,0,0,0-24.9,3.93,88,88,0,0,0-21.66,11.37c-1.9,1.45-1.89,1.45,5,.43,6.14-.92,16-1.1,19.38-.37,5.44,1.19,9.24,2.86,14.67,6.43,3.86,2.54,6.33,3.84,8.18,4.31s6.88.12,12.18-.88Z"/></g></g></svg>