<svg xmlns="http://www.w3.org/2000/svg" viewBox="0 0 333 333"><defs><style>.cls-1{fill:none;}.cls-2{fill:#cc2229;fill-rule:evenodd;}</style></defs><g id="Capa_2" data-name="Capa 2"><g id="Capa_1-2" data-name="Capa 1"><rect class="cls-1" width="333" height="333"/><path class="cls-2" d="M211.79,199.92H198.51V171.54l13.22-.1a7.39,7.39,0,0,1,.7-2.41,5.72,5.72,0,0,1,1.62-2.2,6.49,6.49,0,0,1-1.39-2,8.11,8.11,0,0,1-.85-2.91v-5.73l4.39,0a10.26,10.26,0,0,1-3.93-5.8,10.79,10.79,0,0,1,.86-7.93,12.31,12.31,0,0,1,.47-10.25c2.29-4.69,9.59-4.92,10.58-3.8a13.72,13.72,0,0,1,8.82-3.11,13.52,13.52,0,0,1,9.19,2.8c1.13-.35,8.88-1.06,11.31,4a12.81,12.81,0,0,1,.83,9.7,12.54,12.54,0,0,1,.47,8.83,9.52,9.52,0,0,1-3.56,5.62h4v5.52a8.28,8.28,0,0,1-.62,2.82,6.71,6.71,0,0,1-1.39,2.3,5.33,5.33,0,0,1,2.16,4.52,5.51,5.51,0,0,1-2.16,5,5,5,0,0,1,2.32,4.52,5.18,5.18,0,0,1-2,4.62,5.72,5.72,0,0,1,2.24,5.62c-.29,2.74-2,4.67-4.1,4.72a7.48,7.48,0,0,1,.93,5c-.39,3.22-2.22,5.43-4.73,5.69H218.8c-2.18.13-3.67-.62-5.22-2.61a8.76,8.76,0,0,1-1.79-4Zm24.65-66.82a8.86,8.86,0,0,1,.92-1.37,7.25,7.25,0,0,1,1.82-1.73c-3.18-2.47-6-2.64-9.47-1s-5.23,4.34-6.31,8.83a13.32,13.32,0,0,1,6.52-4.37,10.86,10.86,0,0,1,6.52-.36ZM232,137.65a1.73,1.73,0,1,1,1.72,1.55A1.64,1.64,0,0,1,232,137.65Zm-3.43.27a14.12,14.12,0,0,0,2.66,7.1c2.16,3.1,4.22,4.39,7.44,4.65-2.45,2.24-4.7,2.73-7.58,1.64s-5.57-2.85-5.68-6.74c-.08-3,1-5.39,3.16-6.65Zm5,4.64a3.57,3.57,0,0,0,3.36-1.36,5.76,5.76,0,0,0,1.55-3.19,4.68,4.68,0,0,1,2.94,3.1,7,7,0,0,1-.07,5.73,7.39,7.39,0,0,1-4.06-1,9.5,9.5,0,0,1-3.72-3.28Zm-11.64,1.19a11.08,11.08,0,0,1-1.55-6.38,10.9,10.9,0,0,1,1.62-5.91c-2.39-.09-3.79.64-5.54,2.55a6.18,6.18,0,0,0,5.47,9.74Zm-6.66.73a7.43,7.43,0,0,0,3.92,2.18,6.43,6.43,0,0,0,3,.09,11.94,11.94,0,0,0,3.15,4.92,8.41,8.41,0,0,0,5.33,2.73c-1.69,1.61-6.41,3.11-9.88.91a12,12,0,0,1-5.54-10.83Zm23.28,11v-1.82q4.53-.66,6.16-6.19a11.19,11.19,0,0,0-1-9.29,6,6,0,0,1,4.7,1.74,9.32,9.32,0,0,1,3.58,8.28c-.29,3.57-1.93,5.39-4.54,7.08-2.77,1.8-6.73.42-8.92.2Zm1-20.85a11.07,11.07,0,0,1,6.59.64,12.82,12.82,0,0,1,4.84,3l1.05-.64c-.66-2.84-1.78-4.5-3.86-5.74-3.14-1.87-6.5-.82-8.62,2.73ZM252,159.45s0,3,0,3.14a2.75,2.75,0,0,1-.84,2,1.88,1.88,0,0,1-1.47.73l-10.8,0v-3.68a3.23,3.23,0,0,1,1-1.54,2.17,2.17,0,0,1,1.54-.69Zm-16.83-3.69,0,9.61H233a1.07,1.07,0,0,1-.56-.41,1.76,1.76,0,0,1-.43-.91v-6.19a8.94,8.94,0,0,1,1.33-1.09,8.29,8.29,0,0,1,1.82-1Zm-6.73,9.6v-3.18a3.15,3.15,0,0,0-.84-2,1.89,1.89,0,0,0-1.45-.74H215.34v3.64a3.31,3.31,0,0,0,1,1.55,2.35,2.35,0,0,0,1.54.73h10.59Zm12.89,3.54h8.25c1.23-.07,2.28,1.14,2.35,2.74s-1,3.1-2.24,3.11h-7.55l0-3.91a2.31,2.31,0,0,0-.24-1.21,1.73,1.73,0,0,0-.55-.73Zm1,9.46h7.5c1.26-.05,2.32,1.38,2.24,3a2.56,2.56,0,0,1-1.91,2.62h-7.82Zm.15,9.19H250c1.3,0,2.39,1.43,2.32,3.12s-1,2.78-2.24,2.81H234.78c-1.32.14-2.5-1.3-2.47-3s1.13-3,2.4-2.89l7.8,0ZM238.78,184l0-12.16a3.25,3.25,0,0,0-.93-2.2,2,2,0,0,0-1.69-.74h-19a1.85,1.85,0,0,0-1.41,1,3.12,3.12,0,0,0-.49,2.12l0,8.58a3.79,3.79,0,0,0,.66,2.1,2.33,2.33,0,0,0,2.08,1.29l7.94,0a2.15,2.15,0,0,0,1.8-.8,3.55,3.55,0,0,0,1-2.31v-6h3.24l0,5.67a4,4,0,0,0,1.14,2.54,2.46,2.46,0,0,0,2.13.92ZM229.5,203H219a3.32,3.32,0,0,1-2.77-1.41,5.15,5.15,0,0,1-1.25-2.68v-2.54l-13.15,0V174.76l10,0v5.34a8.28,8.28,0,0,0,1.27,4.41c1.24,2.09,2.6,3,4.63,3.09h8.47a7.13,7.13,0,0,0,2.39-.7,9.18,9.18,0,0,0,1.14-.64,6.44,6.44,0,0,0-1,4,5.91,5.91,0,0,0,2.17,4.81,5.28,5.28,0,0,0-2.17,4.32,5.94,5.94,0,0,0,.75,3.6Zm11.43-5.87h6.22a2.85,2.85,0,0,1,1.93,3.08,2.74,2.74,0,0,1-1.86,2.78H234.51c-1.2-.14-2.07-1.42-2-3s1-2.87,2.24-2.88Zm-189.15,7.4V167h10.9a25.31,25.31,0,0,1,7.85,1.18A9.5,9.5,0,0,1,74,170.31a9.32,9.32,0,0,1,2.27,3.4A11.55,11.55,0,0,1,77.1,178q0,7.11-5.28,10a19.34,19.34,0,0,1-8.76,1.63c-.9,0-1.6,0-2.13-.06v14.89ZM60.93,183h1q6,0,6-4.61t-5.67-4.59l-.56,0c-.26,0-.5,0-.73,0V183ZM79.19,195.5l6.91-2.82q2,5.4,5.79,5.4a4.32,4.32,0,0,0,3-1.05,3.56,3.56,0,0,0,.21-5.11,17.06,17.06,0,0,0-4.13-2.39A30.6,30.6,0,0,1,85,186.07a10.58,10.58,0,0,1-3.15-3.74,10.87,10.87,0,0,1-1-4.76,11.15,11.15,0,0,1,1.54-5.77,10.69,10.69,0,0,1,4.24-4.06,12.64,12.64,0,0,1,6.07-1.46q8,0,11.11,8.32l-7,2.8q-.94-4.49-4.49-4.49a3.55,3.55,0,0,0-2.48.91,2.88,2.88,0,0,0-1,2.23,3,3,0,0,0,.91,2.15,7.25,7.25,0,0,0,1.92,1.45c.67.35,1.76.85,3.28,1.52a19.06,19.06,0,0,1,7.25,5,10.63,10.63,0,0,1,2.24,6.83,12.35,12.35,0,0,1-.93,4.79,11.81,11.81,0,0,1-2.64,3.9,12.14,12.14,0,0,1-4,2.58,12.89,12.89,0,0,1-4.87.92,13.27,13.27,0,0,1-5.48-1.13,12.72,12.72,0,0,1-4.4-3.32,16.6,16.6,0,0,1-3-5.26Zm28-9.78a32.43,32.43,0,0,1,.94-8.2,18.5,18.5,0,0,1,2.7-6.12,12,12,0,0,1,4.32-3.81,13.39,13.39,0,0,1,11.53,0,11.93,11.93,0,0,1,4.33,3.81,18.24,18.24,0,0,1,2.7,6.13,32.43,32.43,0,0,1,.94,8.2,33.06,33.06,0,0,1-.93,8.19,18.45,18.45,0,0,1-2.71,6.15,12,12,0,0,1-4.33,3.84,13.29,13.29,0,0,1-11.53,0,12,12,0,0,1-4.32-3.84,18.6,18.6,0,0,1-2.71-6.14,33.06,33.06,0,0,1-.93-8.19Zm9.54,0a34,34,0,0,0,1,9.56c.66,2.12,1.74,3.18,3.22,3.18a2.81,2.81,0,0,0,2.47-1.54,11.8,11.8,0,0,0,1.31-4.36,53,53,0,0,0,.38-6.84q0-12.69-4.21-12.69a2.81,2.81,0,0,0-2.48,1.51,11.34,11.34,0,0,0-1.3,4.33,51.22,51.22,0,0,0-.39,6.85Zm21.7,18.76V167h22.19v7.14h-13v7.63h8.66v7.42h-8.66v8.14h13v7.14Zm-95-99.17h123.2V230H43.38V105.31Zm125.69,0h123.2V230H169.07V105.31Z"/></g></g></svg>