<svg xmlns="http://www.w3.org/2000/svg" viewBox="0 0 333 333"><defs><style>.cls-1{fill:none;}.cls-2{fill:#5ac035;}</style></defs><g id="Capa_2" data-name="Capa 2"><g id="Capa_1-2" data-name="Capa 1"><rect class="cls-1" width="333" height="333"/><g id="layer1"><g id="g24688"><g id="g3263"><path id="path3265" class="cls-2" d="M61.72,140.25C72.84,178.92,72.55,177.83,73.28,180c.48,1.45,2.65,3.42,4.1,3.42,2.42,0,4.24-1.67,5.81-7l22.47-65c3-8.46,4.35-8.46,11.6-8.46,9.42,0,8.7,4.83,7.24,9.18L90.44,206.13c-1.7,4.82-4.84,7.68-9.43,7.68H74.25c-3.87,0-7.86-1.64-10.16-8.41l-22-66c-1.32-3.87,1.69-6.53,5.56-6.53h4.84c4.59,0,7.73,2.56,9.18,7.4"/></g><g id="g3267"><path id="path3269" class="cls-2" d="M243.17,206.61c-3.63,5.56-6.28,7.2-10.63,7.2h-7c-3.38,0-5.8-2.61-4.59-5a16.33,16.33,0,0,1,1.69-2.75L243.17,177c1.94-2.66,3.15-5.59,3.15-7.76a12.56,12.56,0,0,0-2.18-6.3L228.82,141c-2.9-4.11-2.42-8.13,2.17-8.13h8c3.87,0,7,2.08,9.18,5.71l5.17,9.05c1.93,3.14,4.35,5.11,7,5.11,2.17,0,3.32-1.19,6-4.33l13.5-17.54c2.6-3.47,5.55-6.7,10.87-6.7h5.8c5.56,0,5.32,4.29,3.63,6.71L277.25,160.4c-2.54,3.51-3.63,6.09-3.63,8.51,0,1.93.48,4.37,3.63,8.72l16.67,23.45c5.68,8,5.08,7.69,5.08,9.15,0,2.17-1.69,3.58-5.08,3.58h-7.25c-3.63,0-7.13-2-9.42-5.75l-10.64-17c-2.53-4-4.35-5.12-6.53-5.12-2.89,0-5.07,2-7,5.15Z"/></g><g id="g3271"><path id="path3273" class="cls-2" d="M169.67,228c-34.83,0-53.83-26.28-53.83-55.41,0-39,27.86-56.68,53.19-56.68,35.46,0,54.46,26.91,54.46,56C223.5,204.57,202,228,169.67,228m-1.29-17.21c20.62,0,33.51-15.15,33.51-39,0-21.92-12.56-38.68-32.22-38.68-18.37,0-32.23,13.21-32.23,38.35,0,23.21,12.89,39.32,30.94,39.32"/></g></g></g></g></g></svg>